<svg width="35" height="16" viewBox="0 0 35 16" fill="none" xmlns="http://www.w3.org/2000/svg">
<path d="M6.875 12.7812H5.18031C3.3143 12.7812 1.77168 11.3934 1.52996 9.59385C1.50738 9.43115 1.49609 9.26575 1.49609 9.09705V6.40625H10.6442H14.4453H22.8125L33.5039 7.46885V9.09705C33.5039 11.1324 31.8517 12.7812 29.8197 12.7812H28.125" stroke="#050B20" stroke-width="2" stroke-miterlimit="10" stroke-linecap="round" stroke-linejoin="round"/>
<path d="M23.875 12.7812H15.7914H11.125" stroke="#050B20" stroke-width="2" stroke-miterlimit="10" stroke-linecap="round" stroke-linejoin="round"/>
<path d="M11.125 12.7812C11.125 13.9547 10.1736 14.9062 9 14.9062C7.8264 14.9062 6.875 13.9547 6.875 12.7812C6.875 11.6077 7.8264 10.6562 9 10.6562C10.1736 10.6562 11.125 11.6077 11.125 12.7812Z" stroke="#050B20" stroke-width="2" stroke-miterlimit="10" stroke-linecap="round" stroke-linejoin="round"/>
<path d="M28.125 12.7812C28.125 13.9547 27.1736 14.9062 26 14.9062C24.8264 14.9062 23.875 13.9547 23.875 12.7812C23.875 11.6077 24.8264 10.6562 26 10.6562C27.1736 10.6562 28.125 11.6077 28.125 12.7812Z" stroke="#050B20" stroke-width="2" stroke-miterlimit="10" stroke-linecap="round" stroke-linejoin="round"/>
<path d="M3.15656 9.59375H1.53027" stroke="#050B20" stroke-width="2" stroke-miterlimit="10" stroke-linecap="round" stroke-linejoin="round"/>
<path d="M10.644 6.40569L10.1034 3.84309C9.89026 2.83839 10.5311 1.85089 11.5358 1.63779C12.5405 1.42399 13.528 2.06538 13.7411 3.06948C14.6289 7.27298 14.1724 5.11079 15.7911 12.7807" stroke="#050B20" stroke-width="2" stroke-miterlimit="10" stroke-linecap="round" stroke-linejoin="round"/>
<path d="M22.8125 6.40615L20.6875 1.09375" stroke="#050B20" stroke-width="2" stroke-miterlimit="10" stroke-linecap="round" stroke-linejoin="round"/>
<path d="M1.49609 6.4062C2.50593 4.1443 4.75153 2.6875 7.22875 2.6875H10.2292" stroke="#050B20" stroke-width="2" stroke-miterlimit="10" stroke-linecap="round" stroke-linejoin="round"/>
</svg>
