<svg width="35" height="18" viewBox="0 0 35 18" fill="none" xmlns="http://www.w3.org/2000/svg">
<path d="M29.6539 4.9591H26.9432C26.0374 3.6291 24.8322 2.5173 23.4281 1.72437C21.8558 0.836437 20.0704 0.367188 18.265 0.367188H17.5C16.9451 0.367188 16.4953 0.816987 16.4953 1.37184V4.9591H5.3461C2.89815 4.9591 0.869644 6.784 0.546173 9.1445C0.542542 9.1673 0.539429 9.1901 0.537354 9.2135C0.513748 9.4078 0.5 9.6049 0.5 9.8054V13.6469C0.5 14.2017 0.949799 14.6515 1.50465 14.6515H5.01978C5.46672 16.3781 7.0379 17.6567 8.90221 17.6567C10.7665 17.6567 12.3377 16.3781 12.7846 14.6515H22.2154C22.6626 16.3781 24.2335 17.6567 26.0978 17.6567C27.9621 17.6567 29.533 16.3781 29.9802 14.6515H33.4953C34.0502 14.6515 34.5 14.2017 34.5 13.6469V9.8054C34.5 7.1331 32.326 4.9591 29.6539 4.9591ZM18.5047 2.3801C20.7251 2.4437 22.8312 3.3907 24.3588 4.9591H18.5047V2.3801ZM2.50931 10.304H4.06104C4.61589 10.304 5.06569 9.8542 5.06569 9.2993C5.06569 8.7445 4.61589 8.2947 4.06104 8.2947H2.94691C3.44989 7.4986 4.33704 6.9686 5.3461 6.9686H16.4953V12.6422H12.7846C12.3374 10.9157 10.7665 9.6368 8.90221 9.6368C7.0379 9.6368 5.46698 10.9157 5.01978 12.6422H2.50931V10.304ZM10.9027 13.6469C10.9027 14.7501 10.0054 15.6474 8.90221 15.6474C7.79898 15.6474 6.90172 14.7501 6.90172 13.6469C6.90172 12.5437 7.79898 11.6464 8.90221 11.6464C10.0054 11.6464 10.9027 12.5437 10.9027 13.6469ZM28.0983 13.6469C28.0983 14.7501 27.201 15.6474 26.0978 15.6474C24.9946 15.6474 24.0973 14.7501 24.0973 13.6469C24.0973 12.5437 24.9946 11.6464 26.0978 11.6464C27.201 11.6464 28.0983 12.5437 28.0983 13.6469ZM29.9802 12.6422C29.5333 10.9157 27.9621 9.6368 26.0978 9.6368C24.2335 9.6368 22.6623 10.9157 22.2154 12.6422H18.5047V6.9686H29.6539C30.6451 6.9686 31.519 7.4802 32.0264 8.2527H30.4715C29.9167 8.2527 29.4669 8.7025 29.4669 9.2573C29.4669 9.8122 29.9167 10.2622 30.4715 10.2622H32.4907V12.6422H29.9802Z" fill="#050B20"/>
</svg>
