<svg width="51" height="46" viewBox="0 0 51 46" fill="none" xmlns="http://www.w3.org/2000/svg">
<path d="M43.5115 5.69949L48.199 15.0745C48.6716 16.0196 48.9375 17.0862 48.9375 18.2148C48.9375 20.0634 48.2241 21.7455 47.0575 23.0006L28.9342 42.4991C28.0782 43.42 26.8564 43.996 25.5 43.996C24.1436 43.996 22.9218 43.42 22.0658 42.4991L3.94254 23.0006C2.77594 21.7455 2.0625 20.0634 2.0625 18.2148C2.0625 17.0862 2.3284 16.0196 2.80102 15.0745L7.4885 5.69949C8.642 3.39259 11.0266 1.80859 13.7812 1.80859H37.2188C39.9734 1.80859 42.358 3.39259 43.5115 5.69949Z" stroke="#050B20" stroke-width="3" stroke-miterlimit="10" stroke-linecap="round" stroke-linejoin="round"/>
</svg>
