<svg width="31" height="19" viewBox="0 0 31 19" fill="none" xmlns="http://www.w3.org/2000/svg">
<path d="M25.0625 5.81264H23.8194C23.6795 5.81354 23.5409 5.78674 23.4115 5.73384C23.282 5.68094 23.1643 5.60304 23.065 5.50454L20.2387 2.67834C19.5418 1.98134 18.7132 1.42986 17.8012 1.05594C16.8891 0.682012 15.9119 0.493102 14.9263 0.500192H5.9375C4.52854 0.500192 3.17728 1.0599 2.181 2.05614C1.18471 3.05244 0.625 4.40374 0.625 5.81264V11.1251C0.625 11.9705 0.96083 12.7813 1.5586 13.3791C2.15637 13.9768 2.96712 14.3126 3.8125 14.3126C3.8125 15.2989 4.2043 16.2448 4.9017 16.9422C5.5991 17.6396 6.54498 18.0314 7.53125 18.0314C8.5175 18.0314 9.4634 17.6396 10.1608 16.9422C10.8582 16.2448 11.25 15.2989 11.25 14.3126H18.7938C18.9112 15.2016 19.3478 16.0176 20.0221 16.6087C20.6965 17.1998 21.5626 17.5257 22.4594 17.5257C23.3561 17.5257 24.2223 17.1998 24.8966 16.6087C25.571 16.0176 26.0075 15.2016 26.125 14.3126H27.1875C28.0329 14.3126 28.8436 13.9768 29.4414 13.3791C30.0392 12.7813 30.375 11.9705 30.375 11.1251C30.375 9.71624 29.8153 8.36494 28.819 7.36864C27.8227 6.37244 26.4715 5.81264 25.0625 5.81264ZM14.9794 2.62514C15.6775 2.62394 16.369 2.76034 17.0144 3.02644C17.6598 3.29264 18.2464 3.68344 18.7406 4.17644L20.3769 5.81264H7.255C7.05699 5.81404 6.86253 5.76004 6.69357 5.65684C6.5246 5.55354 6.38785 5.40514 6.29875 5.22834L5.06625 2.76334C5.34804 2.67364 5.64178 2.62704 5.9375 2.62514H14.9794ZM2.75 11.1251V5.81264C2.75058 5.16744 2.94694 4.53764 3.31313 4.00644L4.37563 6.13144C4.63626 6.67354 5.04495 7.13074 5.55446 7.45034C6.06398 7.77004 6.65353 7.93894 7.255 7.93764H13.375V12.1876H10.8781C10.5797 11.5521 10.1064 11.0146 9.5137 10.6382C8.921 10.2617 8.2334 10.0618 7.53125 10.0618C6.8291 10.0618 6.14146 10.2617 5.54876 10.6382C4.95607 11.0146 4.48282 11.5521 4.18437 12.1876H3.8125C3.53071 12.1876 3.26046 12.0757 3.0612 11.8765C2.86194 11.6772 2.75 11.4069 2.75 11.1251ZM7.53125 15.3751C7.21604 15.3751 6.9079 15.2817 6.64581 15.1066C6.38372 14.9314 6.17944 14.6825 6.05882 14.3913C5.93819 14.1001 5.90663 13.7796 5.96812 13.4705C6.02962 13.1613 6.18141 12.8773 6.4043 12.6544C6.62719 12.4316 6.91117 12.2798 7.22032 12.2183C7.52948 12.1568 7.84993 12.1883 8.14115 12.309C8.43237 12.4296 8.6813 12.6339 8.8564 12.896C9.0315 13.158 9.125 13.4662 9.125 13.7814C9.125 14.2041 8.9571 14.6095 8.6582 14.9083C8.35932 15.2072 7.95394 15.3751 7.53125 15.3751ZM22.4062 15.3751C22.091 15.3751 21.7829 15.2817 21.5208 15.1066C21.2587 14.9314 21.0544 14.6825 20.9338 14.3913C20.8132 14.1001 20.7816 13.7796 20.8431 13.4705C20.9046 13.1613 21.0564 12.8773 21.2793 12.6544C21.5022 12.4316 21.7862 12.2798 22.0953 12.2183C22.4045 12.1568 22.7249 12.1883 23.0162 12.309C23.3074 12.4296 23.5563 12.6339 23.7314 12.896C23.9065 13.158 24 13.4662 24 13.7814C24 14.2041 23.8321 14.6095 23.5332 14.9083C23.2343 15.2072 22.8289 15.3751 22.4062 15.3751ZM27.1875 12.1876H25.7531C25.4547 11.5521 24.9814 11.0146 24.3887 10.6382C23.796 10.2617 23.1084 10.0618 22.4062 10.0618C21.7041 10.0618 21.0165 10.2617 20.4238 10.6382C19.8311 11.0146 19.3578 11.5521 19.0594 12.1876H15.5V7.93764H25.0625C25.5081 7.94004 25.9482 8.03584 26.3545 8.21884C26.7608 8.40194 27.1242 8.66804 27.4212 9.00014H27.1875C26.9057 9.00014 26.6355 9.11214 26.4362 9.31134C26.2369 9.51064 26.125 9.78094 26.125 10.0626C26.125 10.3444 26.2369 10.6147 26.4362 10.814C26.6355 11.0132 26.9057 11.1251 27.1875 11.1251H28.25C28.25 11.4069 28.1381 11.6772 27.9388 11.8765C27.7395 12.0757 27.4693 12.1876 27.1875 12.1876Z" fill="#050B20"/>
</svg>
