<svg width="31" height="22" viewBox="0 0 31 22" fill="none" xmlns="http://www.w3.org/2000/svg">
<path d="M29.0394 9.7463L24.8033 8.0526L22.3414 2.30769C21.8378 1.13362 20.6882 0.375 19.4111 0.375H9.6658C8.25056 0.375 6.98938 1.32594 6.6005 2.687L5.13637 7.8125H2.75C1.57806 7.8125 0.625 8.7656 0.625 9.9375V16.3125C0.625 17.4844 1.57806 18.4375 2.75 18.4375H5.02588C5.50081 20.265 7.15088 21.625 9.125 21.625C11.0991 21.625 12.7492 20.265 13.2241 18.4375H17.7759C18.2508 20.265 19.9009 21.625 21.875 21.625C23.8491 21.625 25.4992 20.265 25.9741 18.4375H28.25C29.4219 18.4375 30.375 17.4844 30.375 16.3125V11.7193C30.375 10.8449 29.8512 10.0703 29.0394 9.7463ZM9.125 19.5C7.95306 19.5 7 18.5469 7 17.375C7 16.2031 7.95306 15.25 9.125 15.25C10.2969 15.25 11.25 16.2031 11.25 17.375C11.25 18.5469 10.2969 19.5 9.125 19.5ZM21.875 19.5C20.7031 19.5 19.75 18.5469 19.75 17.375C19.75 16.2031 20.7031 15.25 21.875 15.25C23.0469 15.25 24 16.2031 24 17.375C24 18.5469 23.0469 19.5 21.875 19.5ZM28.25 16.3125H25.9741C25.4992 14.485 23.8491 13.125 21.875 13.125C19.9009 13.125 18.2508 14.485 17.7759 16.3125H13.2241C12.7492 14.485 11.0991 13.125 9.125 13.125C7.15088 13.125 5.50081 14.485 5.02588 16.3125H2.75V9.9375H5.9375C6.41138 9.9375 6.82894 9.623 6.95856 9.1672L8.6426 3.27137C8.7733 2.81662 9.193 2.5 9.6658 2.5H19.4111C19.8361 2.5 20.2196 2.75287 20.3875 3.14387L23.0225 9.2936C23.133 9.5529 23.3423 9.7569 23.6037 9.8621L28.25 11.7193V16.3125Z" fill="#050B20"/>
</svg>
