<svg width="61" height="61" viewBox="0 0 61 61" fill="none" xmlns="http://www.w3.org/2000/svg">
<g clip-path="url(#clip0_14_3580)">
<path d="M24.0465 4.79297C20.3452 4.79297 16.9904 6.97067 15.4836 10.3512L9.38656 24.0304C5.73148 24.2816 2.84375 27.3242 2.84375 31.0429V36.4336C2.84375 39.6696 5.46711 42.2929 8.70312 42.2929H10.3092C10.3179 41.842 10.3293 41.3912 10.3438 40.9403C9.9623 40.1628 9.74727 39.2888 9.74727 38.3643L9.64062 34.207C9.64062 31.1325 10.2662 29.9492 12.5483 29.4895C13.6331 29.2709 14.5413 28.5318 14.9858 27.5184L22.5148 10.3512C24.0215 6.97067 27.3764 4.79297 31.0777 4.79297H24.0465Z" fill="#F9FBFC"/>
<path d="M8.70312 42.2929C5.46711 42.2929 2.84375 39.6696 2.84375 36.4336V31.0429C2.84375 27.3241 5.73148 24.2816 9.38656 24.0304L15.4836 10.3512C16.9903 6.97067 20.3451 4.79297 24.0465 4.79297H34.7217C38.2441 4.79297 41.4692 6.76735 43.0711 9.90446L46.0859 15.8086M58.1562 31.0429C58.1562 27.1597 55.0082 24.0117 51.125 24.0117H19.1328M28.7422 15.8086V4.91016M32.9609 42.2929H27.6873M21.242 37.6054C18.6532 37.6054 16.5545 39.7041 16.5545 42.2929C16.5545 44.8817 18.6532 46.9804 21.242 46.9804C23.8307 46.9804 25.9295 44.8817 25.9295 42.2929C25.9295 39.7041 23.8309 37.6054 21.242 37.6054Z" stroke="#050B20" stroke-width="3" stroke-miterlimit="10" stroke-linecap="round" stroke-linejoin="round"/>
<path d="M58.1562 41.9415C58.1562 46.4396 54.5097 50.1446 50.0117 50.1446C45.5136 50.1446 41.8671 46.4982 41.8671 42.0001C41.8671 37.5019 45.5722 33.8555 50.0703 33.8555M44.0351 48.4454L36.5938 55.8868" stroke="#E1E1E1" stroke-width="3" stroke-miterlimit="10" stroke-linecap="round" stroke-linejoin="round"/>
</g>
<defs>
<clipPath id="clip0_14_3580">
<rect width="60" height="60" fill="white" transform="translate(0.5 0.339844)"/>
</clipPath>
</defs>
</svg>
